<svg width="124" height="124" viewBox="0 0 124 124" fill="none" xmlns="http://www.w3.org/2000/svg">
<g opacity="0.96">
<circle cx="62" cy="62" r="62" fill="white"/>
<path d="M39 33C39 30.2386 41.2386 28 44 28H80C82.7614 28 85 30.2386 85 33V95H39V33Z" fill="#C4C4C4"/>
<path d="M39 33C39 30.2386 41.2386 28 44 28H80C82.7614 28 85 30.2386 85 33V95H39V33Z" fill="url(#paint0_linear_336_10995)"/>
<path d="M39 33C39 30.2386 41.2386 28 44 28H80C82.7614 28 85 30.2386 85 33V95H39V33Z" fill="#1C956A"/>
<path d="M56 79C56 77.8954 56.8954 77 58 77H67C68.1046 77 69 77.8954 69 79V95H56V79Z" fill="#5AB091"/>
<rect x="48" y="20" width="29" height="17" rx="4" fill="#1C956A" stroke="#F7FAF9" stroke-width="2"/>
<path d="M58.3719 34C58.2628 34 58.1736 33.9633 58.1041 33.89C58.0347 33.8167 58 33.7224 58 33.6071V23.3929C58 23.2776 58.0347 23.1833 58.1041 23.11C58.1835 23.0367 58.2727 23 58.3719 23H60.2909C60.4 23 60.4893 23.0367 60.5587 23.11C60.638 23.1833 60.6777 23.2776 60.6777 23.3929V27.18H64.3372V23.3929C64.3372 23.2776 64.3719 23.1833 64.4413 23.11C64.5107 23.0367 64.6 23 64.7091 23H66.6281C66.7372 23 66.8264 23.0367 66.8959 23.11C66.9653 23.1833 67 23.2776 67 23.3929V33.6071C67 33.7224 66.9653 33.8167 66.8959 33.89C66.8264 33.9633 66.7372 34 66.6281 34H64.7091C64.6 34 64.5107 33.9633 64.4413 33.89C64.3719 33.8167 64.3372 33.7224 64.3372 33.6071V29.6943H60.6777V33.6071C60.6777 33.7224 60.638 33.8167 60.5587 33.89C60.4893 33.9633 60.4 34 60.2909 34H58.3719Z" fill="white"/>
<path d="M43 46C43 44.8954 43.8954 44 45 44H49C50.1046 44 51 44.8954 51 46V55H43V46Z" fill="#5BB293"/>
<path d="M53 46C53 44.8954 53.8954 44 55 44H59C60.1046 44 61 44.8954 61 46V55H53V46Z" fill="#5BB293"/>
<path d="M63 46C63 44.8954 63.8954 44 65 44H69C70.1046 44 71 44.8954 71 46V55H63V46Z" fill="#FBAE3B"/>
<path d="M73 46C73 44.8954 73.8954 44 75 44H79C80.1046 44 81 44.8954 81 46V55H73V46Z" fill="#5BB293"/>
<path d="M43 60C43 58.8954 43.8954 58 45 58H49C50.1046 58 51 58.8954 51 60V69H43V60Z" fill="#5BB293"/>
<path d="M43 74C43 72.8954 43.8954 72 45 72H49C50.1046 72 51 72.8954 51 74V83H43V74Z" fill="#5BB293"/>
<path d="M73 74C73 72.8954 73.8954 72 75 72H79C80.1046 72 81 72.8954 81 74V83H73V74Z" fill="#FBAE3B"/>
<path d="M53 60C53 58.8954 53.8954 58 55 58H59C60.1046 58 61 58.8954 61 60V69H53V60Z" fill="#FBAE3B"/>
<path d="M63 60C63 58.8954 63.8954 58 65 58H69C70.1046 58 71 58.8954 71 60V69H63V60Z" fill="#5BB293"/>
<path d="M73 60C73 58.8954 73.8954 58 75 58H79C80.1046 58 81 58.8954 81 60V69H73V60Z" fill="#5BB293"/>
</g>
<defs>
<linearGradient id="paint0_linear_336_10995" x1="62" y1="28" x2="62" y2="95" gradientUnits="userSpaceOnUse">
<stop stop-color="#178F64"/>
<stop offset="1" stop-color="#21B37E"/>
</linearGradient>
</defs>
</svg>
