<svg width="100" height="100" viewBox="0 0 100 100" fill="none" xmlns="http://www.w3.org/2000/svg">
<path d="M50 100C77.6142 100 100 77.6142 100 50C100 22.3858 77.6142 0 50 0C22.3858 0 0 22.3858 0 50C0 77.6142 22.3858 100 50 100Z" fill="white"/>
<path fill-rule="evenodd" clip-rule="evenodd" d="M46.3203 35.0049C46.3203 34.3288 46.8683 33.7808 47.5444 33.7808C48.2204 33.7808 48.7685 34.3288 48.7685 35.0049V39.2892C48.7685 39.3634 48.7619 39.4361 48.7492 39.5066C49.2333 39.4409 49.7392 39.4081 50.2671 39.4081C50.5967 39.4081 50.9166 39.421 51.2268 39.4468C51.2202 39.3952 51.2168 39.3426 51.2168 39.2892V35.0049C51.2168 34.3288 51.7648 33.7808 52.4409 33.7808C53.1169 33.7808 53.665 34.3288 53.665 35.0049V39.2892C53.665 39.5214 53.6003 39.7385 53.4881 39.9235C53.768 40.0252 54.0366 40.1421 54.2938 40.2741C55.4292 40.8514 56.3 41.6259 56.9062 42.5977C57.522 43.5696 57.8299 44.6424 57.8299 45.8163H54.2361C54.2361 45.1235 54.087 44.5125 53.7887 43.9833C53.5 43.4445 53.0574 43.0211 52.4609 42.7132C51.8739 42.4053 51.1282 42.2514 50.2238 42.2514C49.3674 42.2514 48.6554 42.3813 48.0877 42.641C47.52 42.9008 47.0967 43.252 46.8176 43.6946C46.5386 44.1372 46.3991 44.6376 46.3991 45.1957C46.3991 45.5902 46.4905 45.951 46.6733 46.2781C46.8561 46.5956 47.1352 46.8939 47.5104 47.173C47.8857 47.4424 48.3571 47.6974 48.9248 47.9379C49.4925 48.1784 50.1612 48.4094 50.931 48.6307C52.0952 48.9771 53.1104 49.3619 53.9763 49.7853C54.8423 50.199 55.5639 50.6705 56.1413 51.1997C56.7186 51.7289 57.1516 52.3303 57.4402 53.0038C57.7289 53.6677 57.8732 54.4231 57.8732 55.2698C57.8732 56.155 57.6952 56.9536 57.3392 57.6656C56.9832 58.368 56.4732 58.9694 55.8093 59.4697C55.2055 59.9226 54.4871 60.2812 53.6539 60.5455C53.6612 60.5996 53.665 60.6548 53.665 60.7109V64.9952C53.665 65.6713 53.1169 66.2193 52.4409 66.2193C51.7648 66.2193 51.2168 65.6713 51.2168 64.9952V60.9747C50.9455 60.9913 50.6674 60.9996 50.3825 60.9996C49.8404 60.9996 49.3023 60.9608 48.7685 60.8832V64.9952C48.7685 65.6713 48.2204 66.2193 47.5444 66.2193C46.8683 66.2193 46.3203 65.6713 46.3203 64.9952V60.7109C46.3203 60.5521 46.3505 60.4003 46.4056 60.261C45.8136 60.0225 45.2582 59.7251 44.7393 59.3687C43.9407 58.8106 43.3056 58.1179 42.8342 57.2904C42.3627 56.4533 42.127 55.4767 42.127 54.3605H45.7496C45.7496 55.0437 45.8651 55.6258 46.096 56.1069C46.3365 56.588 46.6685 56.9825 47.0919 57.2904C47.5152 57.5887 48.0059 57.81 48.564 57.9543C49.1317 58.0986 49.7379 58.1708 50.3825 58.1708C51.2293 58.1708 51.9365 58.0505 52.5042 57.81C53.0815 57.5694 53.5145 57.2327 53.8031 56.7997C54.0918 56.3667 54.2361 55.8663 54.2361 55.2987C54.2361 54.8657 54.1688 54.4808 54.0341 54.144C53.909 53.8073 53.6829 53.4994 53.3557 53.2203C53.0286 52.9413 52.5667 52.6719 51.9702 52.4121C51.3832 52.1427 50.6327 51.8684 49.7186 51.5894C48.718 51.2815 47.7943 50.9399 46.9475 50.5647C46.1104 50.1798 45.3792 49.7372 44.7537 49.2369C44.1283 48.7269 43.6424 48.1448 43.296 47.4905C42.9496 46.8266 42.7764 46.0616 42.7764 45.1957C42.7764 44.3393 42.9544 43.5599 43.3104 42.8575C43.6761 42.1551 44.1909 41.549 44.8548 41.039C45.366 40.6446 45.9466 40.3195 46.5964 40.0637C46.4238 39.8527 46.3203 39.5831 46.3203 39.2892V35.0049Z" fill="#1A976A"/>
<rect x="35.6572" y="29.2544" width="28.6667" height="41.4912" rx="2.26316" stroke="#1A976A" stroke-width="1.50877"/>
<path d="M34.9907 41.4124H27.4907V30.9124H21.4907" stroke="#FBAE3B"/>
<path d="M34.9908 60.904H27.4908V66.3101L22.6099 69.5876" stroke="#FBAE3B"/>
<path d="M34.9905 51.158H22.7765" stroke="#FBAE3B"/>
<circle cx="19.9907" cy="30.4124" r="5" fill="#FBAE3B"/>
<circle cx="19.9907" cy="51.158" r="5" fill="#FBAE3B"/>
<circle cx="19.9907" cy="69.5876" r="5" fill="#FBAE3B"/>
<path d="M65.0093 58.5876H72.5093V69.0876H78.5093" stroke="#FBAE3B"/>
<path d="M65.0092 39.096H72.5092V33.6899L77.3901 30.4124" stroke="#FBAE3B"/>
<path d="M65.0095 48.842H77.2235" stroke="#FBAE3B"/>
<circle cx="80.0093" cy="69.5876" r="5" transform="rotate(-180 80.0093 69.5876)" fill="#FBAE3B"/>
<circle cx="80.0093" cy="48.842" r="5" transform="rotate(-180 80.0093 48.842)" fill="#FBAE3B"/>
<circle cx="80.0093" cy="30.4124" r="5" transform="rotate(-180 80.0093 30.4124)" fill="#FBAE3B"/>
</svg>
