<svg width="124" height="124" viewBox="0 0 124 124" fill="none" xmlns="http://www.w3.org/2000/svg">
<ellipse cx="62" cy="61.8401" rx="62" ry="61.8401" fill="white"/>
<g clip-path="url(#clip0_336_10989)">
<rect x="35.2524" y="72.0269" width="46.3655" height="13.2131" fill="#FBAE3B"/>
<path d="M93.7606 61.4888V86.9388C93.7606 87.791 93.0677 88.4821 92.2132 88.4821H32.3833C31.5288 88.4821 30.8359 87.791 30.8359 86.9388V68.9311C30.8359 68.3458 31.1677 67.8112 31.6925 67.5501L46.65 60.1078C47.1296 59.8692 47.699 59.8951 48.1546 60.1763C48.6104 60.4575 48.888 60.9542 48.888 61.4888V66.4364L58.0473 61.8792V46.8064C58.0473 45.9541 58.7402 45.263 59.5946 45.263H62.4027C63.2571 45.263 63.95 45.9541 63.95 46.8064V66.3846L74.1689 61.3002L74.8015 33.9556C74.8209 33.1173 75.5077 32.4478 76.3485 32.4478H83.0939C83.9344 32.4478 84.6214 33.1173 84.6409 33.9556L85.3174 63.1954L91.5225 60.1081C92.0022 59.8695 92.5713 59.8954 93.0271 60.1766C93.483 60.4578 93.7606 60.9542 93.7606 61.4888ZM41.6914 75.9919H37.5059V81.8584H41.6914V75.9919ZM53.0256 75.9919H48.84V81.8584H53.0256V75.9919ZM64.3601 75.9919H60.1745V81.8584H64.3601V75.9919ZM75.6946 75.9919H71.509V81.8584H75.6946V75.9919Z" fill="#1A976A"/>
</g>
<defs>
<clipPath id="clip0_336_10989">
<rect width="62.9246" height="62.7624" fill="white" transform="translate(30.8359 29.084)"/>
</clipPath>
</defs>
</svg>
