<svg width="100" height="100" viewBox="0 0 100 100" fill="none" xmlns="http://www.w3.org/2000/svg">
<path d="M50 100C77.6142 100 100 77.6142 100 50C100 22.3858 77.6142 0 50 0C22.3858 0 0 22.3858 0 50C0 77.6142 22.3858 100 50 100Z" fill="white"/>
<path d="M22.4133 78.4734C19.742 79.0077 19.0247 81.7137 19 83H42V80.1419C41.4463 79.525 39.9752 78.0281 38.738 78.0281C37.3282 78.0281 33.989 77.0634 34.2858 74.6888C35.2505 73.5015 38.367 70.6074 36.4377 67.3423C37.254 64.5225 35.0279 60.5895 30.8725 61.0347C28.7948 61.3315 25.7525 62.4447 25.8267 67.3423C24.862 69.5685 25.1588 70.9785 28.0528 74.6888C28.127 77.2118 25.9009 77.7313 22.4133 78.4734Z" fill="#1A976A"/>
<path d="M71.2541 10.989L62.0073 16.9869L71.2541 23.1098L80.376 16.9869L71.2541 10.989Z" fill="#1A976A"/>
<path d="M72.6282 25.4842L82 19.1113V29.6077L72.6282 35.8555V25.4842Z" fill="#FBAE3B"/>
<path d="M69.7541 25.4842L60.3823 19.1113V29.6077L69.7541 35.8555V25.4842Z" fill="#1A976A"/>
<path d="M56 23L46 17.2265V28.7735L56 23ZM33.3684 50H26V52H33.3684V50ZM26 24H47V22H26V24ZM13 37C13 29.8203 18.8203 24 26 24V22C17.7157 22 11 28.7157 11 37H13ZM26 50C18.8203 50 13 44.1797 13 37H11C11 45.2843 17.7157 52 26 52V50Z" fill="#1A976A"/>
<path d="M64.6316 51L74.6316 56.7735V45.2265L64.6316 51ZM72 78H45.5V80H72V78ZM85 65C85 72.1797 79.1797 78 72 78V80C80.2843 80 87 73.2843 87 65H85ZM72 52C79.1797 52 85 57.8203 85 65H87C87 56.7157 80.2843 50 72 50V52Z" fill="#1A976A"/>
<path fill-rule="evenodd" clip-rule="evenodd" d="M47.25 38.8563C47.25 38.3834 47.6167 38 48.0691 38H51.9309C52.3833 38 52.75 38.3834 52.75 38.8563V41.0989C53.0533 41.2121 53.3485 41.343 53.6345 41.4904L55.1853 39.8691C55.5052 39.5347 56.0238 39.5347 56.3437 39.8691L59.0744 42.7239C59.3943 43.0584 59.3943 43.6006 59.0744 43.935L57.5052 45.5756C57.6547 45.9006 57.7857 46.2367 57.8968 46.5824H60.1809C60.6333 46.5824 61 46.9658 61 47.4387V51.476C61 51.949 60.6333 52.3324 60.1809 52.3324H57.8479C57.7115 52.7328 57.5483 53.1199 57.3603 53.4913L58.9679 55.172C59.2878 55.5064 59.2878 56.0486 58.9679 56.383L56.2372 59.2378C55.9173 59.5722 55.3987 59.5722 55.0788 59.2378L53.3406 57.4205C53.1474 57.5105 52.9505 57.5931 52.75 57.6679V60.1437C52.75 60.6166 52.3833 61 51.9309 61H48.0691C47.6167 61 47.25 60.6166 47.25 60.1437V57.7255C46.9825 57.6319 46.721 57.5247 46.4662 57.4046L44.8151 59.1308C44.4952 59.4652 43.9766 59.4652 43.6567 59.1308L40.926 56.276C40.6061 55.9415 40.6061 55.3993 40.926 55.0649L42.4635 53.4575C42.2959 53.1231 42.1484 52.7759 42.0225 52.4178H39.8191C39.3667 52.4178 39 52.0344 39 51.5615V47.5241C39 47.0512 39.3667 46.6678 39.8191 46.6678H41.917C42.0622 46.1997 42.244 45.7488 42.4587 45.3188L41.033 43.8283C40.7131 43.4939 40.7131 42.9517 41.033 42.6173L43.7637 39.7624C44.0836 39.428 44.6022 39.428 44.9221 39.7624L46.4566 41.3667C46.7144 41.2448 46.9791 41.1361 47.25 41.0413V38.8563ZM45.7376 45.8305L46.5219 45.0106C47.4288 44.2393 48.5801 43.7702 49.8357 43.75H50.0051C52.9424 43.7973 55.3095 46.3014 55.3095 49.3834C55.3095 52.495 52.8967 55.0175 49.9204 55.0175C46.944 55.0175 44.5312 52.495 44.5312 49.3834C44.5312 48.0364 44.9834 46.7998 45.7376 45.8305Z" fill="#FBAE3B"/>
</svg>
