<svg width="100" height="100" viewBox="0 0 100 100" fill="none" xmlns="http://www.w3.org/2000/svg">
<path d="M50 100C77.6142 100 100 77.6142 100 50C100 22.3858 77.6142 0 50 0C22.3858 0 0 22.3858 0 50C0 77.6142 22.3858 100 50 100Z" fill="white"/>
<path fill-rule="evenodd" clip-rule="evenodd" d="M46 11.2287C46 10.5501 46.5334 10 47.1914 10H52.8086C53.4666 10 54 10.5501 54 11.2287V14.4463C54.4411 14.6087 54.8705 14.7965 55.2866 15.008L57.5423 12.6818C58.0076 12.202 58.7619 12.202 59.2272 12.6818L63.1992 16.7778C63.6644 17.2577 63.6644 18.0356 63.1992 18.5154L60.9166 20.8693C61.1342 21.3356 61.3247 21.8178 61.4862 22.3138H64.8086C65.4666 22.3138 66 22.8639 66 23.5425V29.3352C66 30.0137 65.4666 30.5638 64.8086 30.5638H61.4151C61.2168 31.1384 60.9793 31.6938 60.7059 32.2266L63.0443 34.638C63.5095 35.1179 63.5095 35.8958 63.0443 36.3756L59.0723 40.4717C58.607 40.9515 57.8527 40.9515 57.3874 40.4717L54.859 37.8642C54.5781 37.9933 54.2916 38.1118 54 38.2192V41.7713C54 42.4499 53.4666 43 52.8086 43H47.1914C46.5334 43 46 42.4499 46 41.7713V38.3018C45.6109 38.1676 45.2305 38.0137 44.8599 37.8414L42.4583 40.3181C41.993 40.7979 41.2387 40.7979 40.7734 40.3181L36.8014 36.222C36.3362 35.7422 36.3362 34.9643 36.8014 34.4844L39.0378 32.1782C38.7941 31.6983 38.5795 31.2002 38.3963 30.6864H35.1914C34.5334 30.6864 34 30.1363 34 29.4578V23.6651C34 22.9865 34.5334 22.4364 35.1914 22.4364H38.2429C38.4541 21.7648 38.7185 21.1179 39.0309 20.5009L36.9571 18.3623C36.4918 17.8825 36.4918 17.1046 36.9571 16.6248L40.929 12.5287C41.3943 12.0489 42.1487 12.0489 42.6139 12.5287L44.846 14.8305C45.221 14.6556 45.606 14.4996 46 14.3637V11.2287ZM43.8002 21.2351L44.941 20.0586C46.26 18.9521 47.9347 18.279 49.761 18.25H50.0074C54.2798 18.3179 57.7229 21.9106 57.7229 26.3327C57.7229 30.7972 54.2134 34.4164 49.8842 34.4164C45.555 34.4164 42.0454 30.7972 42.0454 26.3327C42.0454 24.4001 42.7031 22.6259 43.8002 21.2351Z" fill="#FBAE3B"/>
<circle cx="26.23" cy="70.9055" r="4.45946" fill="#1A976A"/>
<circle cx="37.9863" cy="70.9055" r="4.45946" fill="#1A976A"/>
<circle cx="49.7431" cy="70.9055" r="4.45946" fill="#1A976A"/>
<circle cx="61.5" cy="70.9055" r="4.45946" fill="#1A976A"/>
<circle cx="73.2568" cy="70.9055" r="4.45946" fill="#1A976A"/>
<path d="M48.73 62.7974H25.2164C20.8504 62.7974 17.311 66.3367 17.311 70.7028V70.7028C17.311 75.0688 20.8504 78.6082 25.2164 78.6082H48.73" stroke="#1A976A" stroke-width="0.810811"/>
<path d="M51.77 62.7974H75.2836C79.6496 62.7974 83.189 66.3367 83.189 70.7028V70.7028C83.189 75.0688 79.6496 78.6082 75.2836 78.6082H51.77" stroke="#1A976A" stroke-width="0.810811"/>
<path d="M24.4053 63V51.2432C24.4053 49.452 25.8573 48 27.6485 48H37.3782C39.1694 48 40.6215 49.452 40.6215 51.2432V63" stroke="#1A976A" stroke-width="0.810811"/>
<path d="M24.6079 78.6081V82.2568C24.6079 84.048 26.06 85.5 27.8512 85.5H37.5809C39.3721 85.5 40.8241 84.048 40.8241 82.2568V78.6081" stroke="#1A976A" stroke-width="0.810811"/>
<path d="M60.689 78.6081V82.2568C60.689 84.048 62.141 85.5 63.9322 85.5H73.6619C75.4531 85.5 76.9052 84.048 76.9052 82.2568V78.6081" stroke="#1A976A" stroke-width="0.810811"/>
<path d="M59.4731 63V51.2432C59.4731 49.452 60.9252 48 62.7164 48H72.4461C74.2373 48 75.6894 49.452 75.6894 51.2432V63" stroke="#1A976A" stroke-width="0.810811"/>
<path d="M29.4731 48.2026V51.8513C29.4731 52.7469 30.1992 53.4729 31.0948 53.4729H34.338C35.2336 53.4729 35.9596 52.7469 35.9596 51.8513V48.2026" stroke="#1A976A" stroke-width="0.810811"/>
<path d="M64.3379 48.2026V51.8513C64.3379 52.7469 65.0639 53.4729 65.9595 53.4729H69.2028C70.0984 53.4729 70.8244 52.7469 70.8244 51.8513V48.2026" stroke="#1A976A" stroke-width="0.810811"/>
</svg>
