<svg width="124" height="124" viewBox="0 0 124 124" fill="none" xmlns="http://www.w3.org/2000/svg">
<g opacity="0.96">
<circle cx="62" cy="62" r="62" fill="white"/>
<path d="M100 70.9999L48 88.9999V63.9999L100 47V70.9999Z" fill="#C4C4C4"/>
<path d="M100 70.9999L48 88.9999V63.9999L100 47V70.9999Z" fill="#5AB091"/>
<path d="M48 89V64L24.9564 50.7119L24.9531 76.5L48 89Z" fill="black"/>
<path d="M48 89V64L24.9564 50.7119L24.9531 76.5L48 89Z" fill="#1D946A"/>
<path d="M76.8733 34L24.9492 50.7094L48 64L100 47L76.8733 34Z" fill="#E3EAEE"/>
<path d="M76.8733 34L24.9492 50.7094L48 64L100 47L76.8733 34Z" fill="#59AE8F"/>
<rect x="42.5" y="51.1055" width="3.07286" height="12.5502" rx="1.53643" transform="rotate(-57.1828 42.5 51.1055)" fill="#FBAE3B"/>
<rect x="62.1602" y="44.7568" width="3.07286" height="12.5502" rx="1.53643" transform="rotate(-57.1828 62.1602 44.7568)" fill="#FBAE3B"/>
<rect x="72.1562" y="41.4604" width="3.07286" height="12.5502" rx="1.53643" transform="rotate(-57.1828 72.1562 41.4604)" fill="#FBAE3B"/>
<rect x="52.0898" y="47.9561" width="3.07286" height="12.5502" rx="1.53643" transform="rotate(-57.1828 52.0898 47.9561)" fill="#FBAE3B"/>
</g>
</svg>
